<?xml version="1.0" encoding="utf-8"?>
<!-- Generator: Adobe Illustrator 15.1.0, SVG Export Plug-In . SVG Version: 6.00 Build 0)  -->
<!DOCTYPE svg PUBLIC "-//W3C//DTD SVG 1.0//EN" "http://www.w3.org/TR/2001/REC-SVG-20010904/DTD/svg10.dtd">
<svg version="1.0" id="Layer_1" xmlns="http://www.w3.org/2000/svg" xmlns:xlink="http://www.w3.org/1999/xlink" x="0px" y="0px"
	 width="256px" height="256px" viewBox="0 0 256 256" enable-background="new 0 0 256 256" xml:space="preserve">
<g>
	<rect fill="#FFFFFF" width="256" height="256"/>
	<g>
		<path fill="#254385" d="M128,18.706c-60.363,0-109.293,48.93-109.293,109.291c0,60.36,48.93,109.298,109.293,109.298
			c60.361,0,109.293-48.938,109.293-109.298C237.293,67.636,188.361,18.706,128,18.706 M130.504,166.395
			c-12.793,0-24.691-3.912-34.561-10.6v32.832c0,5.133-0.602,8.943-1.787,11.377c-1.016,1.934-2.617,3.568-4.854,4.869
			c-2.182,1.262-4.549,1.914-6.982,1.914c-2.404,0-4.732-0.652-6.918-1.914c-2.191-1.301-3.832-2.936-4.871-4.869
			c-1.219-2.434-1.816-6.244-1.816-11.377v-83.126h0.023c-0.004-0.307-0.023-0.612-0.023-0.92c0-34.049,27.717-61.834,61.789-61.834
			c34.086,0,61.816,27.785,61.816,61.834C192.32,138.658,164.59,166.395,130.504,166.395z"/>
		<path fill="#244384" d="M130.504,70.169c-18.986,0-34.373,15.441-34.373,34.412c0,6.859,2.041,13.246,5.52,18.619l-7.264,20.163
			l20.328-8.285c4.73,2.457,10.092,3.867,15.789,3.867c18.98,0,34.404-15.429,34.404-34.364
			C164.908,85.61,149.484,70.169,130.504,70.169"/>
		<path fill="#FFFFFF" d="M130.504,42.747c-34.072,0-61.789,27.785-61.789,61.834c0,0.308,0.02,0.613,0.023,0.92h-0.023v83.126
			c0,5.133,0.598,8.943,1.816,11.377c1.039,1.934,2.68,3.568,4.871,4.869c2.186,1.262,4.514,1.914,6.918,1.914
			c2.434,0,4.801-0.652,6.982-1.914c2.236-1.301,3.838-2.936,4.854-4.869c1.186-2.434,1.787-6.244,1.787-11.377v-32.832
			c9.869,6.688,21.768,10.6,34.561,10.6c34.086,0,61.816-27.736,61.816-61.813C192.32,70.532,164.59,42.747,130.504,42.747
			 M130.504,138.945c-5.697,0-11.059-1.41-15.789-3.867l-20.328,8.285l7.264-20.163c-3.479-5.373-5.52-11.76-5.52-18.619
			c0-18.971,15.387-34.412,34.373-34.412c18.98,0,34.404,15.441,34.404,34.412C164.908,123.517,149.484,138.945,130.504,138.945z"/>
	</g>
</g>
</svg>
